<?xml version="1.0" encoding="utf-8"?>
<!-- Generator: Adobe Illustrator 22.0.0, SVG Export Plug-In . SVG Version: 6.00 Build 0)  -->
<svg version="1.1" id="Layer_1" xmlns="http://www.w3.org/2000/svg" xmlns:xlink="http://www.w3.org/1999/xlink" x="0px" y="0px"
	 viewBox="0 0 432 432" style="enable-background:new 0 0 432 432;" xml:space="preserve">
<style type="text/css">
	.st0{fill:#111111;}
</style>
<g>
	<path class="st0" d="M99.5,104.9c0.6-0.9,1-1,1.5-1.4c0.2-0.1,0.3-0.3,0.2-0.6c-0.1-0.5-1.3-0.4-2.4-0.2c-1,0.2-3.9,0.7-3.8,1.2
		c0.1,0.3,0.2,0.3,0.4,0.4c0.6,0.1,1.4,0.4,2,0.8c-0.1,1-0.2,11.7-0.2,17.1c-2.9-5.7-5.5-12.4-7.5-15.8c0.5-0.7,0.6-0.9,1.2-1.1
		c0.2-0.1,0.3-0.3,0.2-0.6c-0.1-0.5-2.7,0.1-3.8,0.3c-1.1,0.2-3.5,0.9-3.4,1.4c0.1,0.2,0.3,0.3,0.4,0.4c0.7,0.1,1.1,0.2,1.6,0.6
		c0.1,1,0.1,11.8,0.2,17.1c-3.1-5.7-5.8-12.2-7.8-15.7c0.5-0.7,0.6-0.9,1.2-1.2c0.2-0.1,0.2-0.3,0.2-0.6c-0.1-0.5-2.7,0.1-3.8,0.4
		c-1.1,0.3-3.5,0.9-3.4,1.5c0.1,0.2,0.3,0.3,0.4,0.4c0.7,0.1,1.1,0.1,1.7,0.6c0,0,7.6,15.2,9.5,19.2c-0.2,0.3-0.3,0.5-0.6,0.8
		c-0.1,0.2-0.2,0.2-0.2,0.5c0.1,0.5,2.4,0.2,3.3,0c1-0.2,2.9-0.7,2.8-1.2c-0.1-0.3-0.1-0.4-0.2-0.4c-0.5-0.2-0.8-0.3-1.2-0.6v-16.5
		c2.4,5.1,4.8,10.1,7.1,15.2c-0.2,0.3-0.3,0.5-0.6,0.8c-0.1,0.2-0.3,0.2-0.2,0.5c0.1,0.5,2.4,0.3,3.3,0.1c1-0.2,2.9-0.7,2.8-1.2
		c0-0.3-0.1-0.4-0.2-0.4c-0.5-0.2-0.8-0.3-1.2-0.6c0-1.2,0.2-16,0.4-20.8C99.4,104.9,99.5,104.9,99.5,104.9z"/>
	<path class="st0" d="M121.7,122.7c-0.5-0.3-1.1-0.3-1.5-0.7c-0.7-4.3-2.1-16-2.9-20.3c0.3-0.6,0.6-0.7,1-1.1
		c0.1-0.1,0.3-0.2,0.2-0.4c-0.1-0.5-2.4-0.4-3.4-0.2c-1,0.2-3.2,0.8-3.2,1.2c-0.1,0.2,0.2,0.3,0.3,0.3c0.6,0.3,0.9,0.4,1.4,0.8
		c0.5,3,1,6,1.4,8.9H115c-1.4,1.5-5.3,2-6.2,1c-0.6-3.6-1.2-7.1-1.4-8.9c0.3-0.6,0.6-0.8,1-1.2c0.1-0.1,0.2-0.2,0.2-0.4
		c-0.3-0.5-2.5-0.3-3.4-0.2c-1,0.2-3.3,0.8-3.2,1.3c0,0.2,0.2,0.3,0.3,0.3c0.6,0.2,1.2,0.1,1.3,0.8c0.8,5.1,3.2,17.3,3.5,20.2
		c-0.1,0.7-0.5,0.7-1,1.1c-0.1,0.1-0.3,0.2-0.2,0.5c0.1,0.5,2.3,0.3,3.3,0.1c0.9-0.2,3-0.8,3.1-1.2c0-0.3-0.2-0.3-0.3-0.4
		c-0.5-0.3-1-0.3-1.5-0.7c-0.4-1.8-0.7-4.9-1.3-8.2c0.7-1,5.3-1.8,6.3-0.9c0.4,2.7,0.9,5.3,1.3,8c-0.4,0.5-0.6,0.7-1.1,1.1
		c-0.1,0.1-0.3,0.2-0.2,0.5c0.2,0.6,2.3,0.3,3.3,0.2c1-0.2,3.2-0.6,3.1-1.1C122,122.9,121.8,122.8,121.7,122.7z"/>
	<path class="st0" d="M136.8,116c-0.1-0.4-0.3-0.8-0.5-1c-0.2-0.1-0.4-0.2-0.6-0.1c-0.3,0.1-0.5,0.2-0.6,0.4
		c-0.2,0.9,0.4,2.7-0.4,3.9c-0.7,1-3.1,1.2-5,1.5c-0.5,0.1-0.9,0.1-1.4,0.2c-0.4-3.2-0.7-6.3-1-9.5c0.9-0.1,1.7-0.1,2.2,0.4
		c0.8,0.6,0.8,1,1.2,1.5c0.1,0.1,0.2,0.2,0.5,0.2c0.5-0.1,0.3-2.5,0.2-3.5c-0.1-1-0.6-3-1.1-3c-0.3-0.1-0.3,0.2-0.4,0.3
		c-0.2,0.6-0.2,1.2-0.8,1.7c-0.5,0.5-1.2,0.7-2,0.8c-0.3-3.1-0.7-6.2-1-9.3c0.3-0.1,0.6-0.1,0.8-0.2c2-0.3,4.4-0.7,5.4,0.1
		c1.2,1,1.1,2.9,1.5,3.7c0.1,0.2,0.4,0.3,0.7,0.2c0.2,0,0.5-0.1,0.6-0.3c0.1-0.3,0.2-0.7,0.3-1.1c0.1-1.1-0.3-2.8-0.5-3.5
		c-0.2-1.2-1-2-2.7-1.8c-3.3,0.5-6.2,0.8-9.2,1.2c-1,0.2-3.4,0.7-3.2,1.2c0.1,0.2,0.2,0.3,0.3,0.3c0.6,0.3,0.8,0.4,1.4,0.8
		c0.3,0.2,0.6,0.7,0.7,1.2c0.9,5.9,1.7,11.8,2.6,17.7c-0.1,0.6-0.2,1-0.3,1.3c-0.4,0.6-0.6,0.8-1.1,1.2c-0.1,0.1-0.2,0.2-0.2,0.5
		c0.1,0.5,2.4,0.3,3.3,0.2c1.2-0.2,2.4-0.4,3.5-0.5c1.7-0.4,3.5-0.5,5.3-0.8c1.6-0.2,2.1-1.2,2-2.4C137.2,118.8,137,117.2,136.8,116
		z"/>
	<path class="st0" d="M154.9,118.9c-0.6-0.1-0.7-0.2-1-0.6c-0.6-3.9-1.6-17.3-1.9-21.1V97c0.4-0.3,0.4-0.3,0.9-0.6
		c0.2-0.1,0.3-0.4,0.3-0.6c-0.1-0.5-0.5-0.6-1.5-0.5c-1.1,0.1-3.3,0.3-3.3,0.8c0,0.2,0.2,0.4,0.3,0.4c0.7,0.1,0.9,0.2,1.3,0.7
		c0.6,5.9,1.1,11.7,1.7,17.6c-4.3-5.7-9.6-13.8-12.1-16.7c0.4-0.4,0.8-0.6,0.8-1c0.1-0.5-0.4-0.6-1.5-0.4c-1.1,0.1-3,0.3-3,0.8
		c0.1,0.2,0.2,0.3,0.3,0.4c0.7,0.3,0.7,0.3,1,0.6c0.8,6.9,1.7,13.9,2.5,20.8c-0.4,0.7-0.6,0.9-1,1.1c-0.2,0.1-0.3,0.3-0.2,0.6
		c0.1,0.5,0.7,0.5,1.7,0.4c1-0.2,3.2-0.3,3.2-0.9c-0.1-0.2-0.2-0.4-0.3-0.4c-0.6-0.2-1.1-0.6-1.6-1.1c0-0.1,0-0.1-0.1-0.1
		c-0.4-2.8-1-8.4-1.5-13.2c3.6,4.9,8.2,11.7,10.7,14c0,0.1,0.1,0.1,0.2,0.1c0.3,0.2,0.8,0.2,1.6,0.1c1-0.1,2.7-0.2,2.7-0.7
		C155.2,119.1,155.1,118.9,154.9,118.9z"/>
	<path class="st0" d="M178.3,112.2c-0.2-0.8-0.5-1.1-1-1.2c-0.4-0.1-0.5,0.2-0.6,0.4c-0.2,0.8,0.2,2.1-0.8,3.4
		c-0.7,0.9-2.9,1-4.9,1.1c0,0-0.5,0.2-0.7,0c-0.3-5.6-1.2-17.6-1.2-19.9c0-0.6,0.7-0.7,1.1-1c0.1-0.1,0.2-0.2,0.2-0.4
		c0-0.5-2.3-0.6-3.3-0.5c-1,0.1-3.3,0.5-3.3,1c0.1,0.2,0.2,0.3,0.3,0.4c0.6,0.3,1.3,0.2,1.3,0.9c0.1,4.2,1.2,14.9,1.6,20.4
		c-0.4,0.6-0.6,0.7-1.1,1.1c-0.1,0.1-0.3,0.2-0.3,0.4c0.1,0.5,2.3,0.5,3.3,0.4c0.9-0.1,1.8-0.1,2.7-0.2c1.4-0.2,3.1-0.3,4.7-0.4
		c1.6-0.1,2.2-1.1,2.2-2.2C178.4,114.9,178.4,113.3,178.3,112.2z"/>
	<path class="st0" d="M185.6,116.5c-0.5-0.4-1.3-0.3-1.4-0.9c-0.3-1.7-0.6-16.7-0.8-20.5c0.1-0.6,0.7-0.6,1.1-1
		c0.1-0.1,0.3-0.2,0.2-0.4c-0.2-0.5-2.4-0.6-3.3-0.6c-1.1,0.1-3.1,0.2-3.3,0.9c-0.1,0.2,0.2,0.3,0.3,0.3c0.6,0.3,1.2,0.3,1.3,0.9
		c0.2,1.2,0.8,16.8,1.1,20.5c-0.1,0.6-0.6,0.6-1.1,1c-0.1,0.1-0.3,0.2-0.2,0.4c0,0.6,2.2,0.6,3.3,0.5c0.9-0.1,3.1-0.3,3.1-0.8
		C185.8,116.6,185.7,116.6,185.6,116.5z"/>
	<path class="st0" d="M200.9,94.6c-0.1-1.2-0.8-2.1-2.4-2c-2.3,0.1-4.5,0.1-6.6,0.2c-0.9,0-1.8,0.1-2.7,0.1c-1,0.1-3.3,0.4-3.3,0.9
		c0,0.2,0.2,0.3,0.3,0.4c0.6,0.3,0.8,0.4,1.3,0.9c0.2,0.3,0.5,0.7,0.6,1.3c0.3,6.3,0.6,12.7,0.8,19.1c-0.7,0.7-1.1,0.9-1.6,1.1
		c-0.2,0.1-0.3,0.3-0.3,0.5c0,0.5,2.7,0.5,3.8,0.4c1-0.1,3.7-0.3,3.7-0.8c0-0.3-0.2-0.4-0.3-0.5c-0.6-0.2-1.4-0.4-1.9-0.9
		c-0.1-0.9-0.1-2.4,0-3.9c0-1.8,0-3.7-0.1-5.6c0.9,0.1,1.7,0.2,2.2,0.6c0.8,0.7,0.8,1.1,1,1.6c0.1,0.1,0.3,0.3,0.5,0.3
		c0.5-0.1,0.6-2.4,0.5-3.5c0-1-0.3-3.1-0.8-3.1c-0.3,0-0.4,0.1-0.4,0.3c-0.2,0.6-0.3,1.2-0.9,1.6c-0.5,0.5-1.3,0.6-2.1,0.6
		c0-0.4,0-0.7,0.1-1.1c-0.1-2.7-0.1-5.4-0.1-8.1v-0.2h0.8c2-0.1,4.4-0.3,5.3,0.6c1,1.1,0.8,3,1.1,3.8c0.1,0.2,0.3,0.3,0.6,0.3
		c0.3,0,0.5-0.1,0.6-0.2c0.2-0.3,0.3-0.7,0.4-1.1C201,97,201,95.3,200.9,94.6z"/>
	<path class="st0" d="M216.3,110.1c-0.1-0.2-0.4-0.2-0.6-0.2c-0.3,0-0.5,0.2-0.6,0.3c-0.3,0.9,0.1,2.7-1,3.8
		c-0.8,0.9-3.1,0.8-5.1,0.8c-0.5,0-0.9,0.1-1.4,0.1c0.1-3.2,0.1-6.4,0.2-9.6c0.9,0.1,1.7,0.2,2.2,0.7c0.7,0.7,0.7,1.1,1,1.6
		c0.1,0.1,0.2,0.3,0.5,0.3c0.5,0,0.6-2.4,0.6-3.4c0-1-0.2-3.1-0.8-3.2c-0.2-0.1-0.3,0.1-0.4,0.3c-0.2,0.6-0.4,1.2-1,1.6
		c-0.5,0.5-1.3,0.5-2.1,0.5c0.1-3.1,0.1-6.2,0.2-9.3c0.3,0,0.5,0,0.8-0.1c2,0,4.4-0.1,5.3,0.8c1,1.2,0.7,3,1,3.8
		c0.1,0.2,0.4,0.3,0.7,0.3c0.2,0,0.5-0.1,0.6-0.2c0.2-0.3,0.3-0.6,0.4-1c0.2-1.1,0.1-2.8,0-3.5c-0.1-1.2-0.7-2.1-2.4-2.1
		c-3.3,0.1-6.3,0-9.2,0.1c-1,0-3.4,0.2-3.4,0.8c0.1,0.2,0.2,0.3,0.3,0.4c0.6,0.3,0.8,0.5,1.3,1c0.2,0.3,0.4,0.7,0.6,1.3
		c0.1,6,0.2,12,0.3,17.9c-0.2,0.6-0.3,1-0.5,1.3c-0.5,0.5-0.7,0.7-1.2,1c-0.1,0.1-0.3,0.2-0.3,0.4c0,0.5,2.2,0.6,3.3,0.6
		c1.2-0.1,2.4-0.1,3.5-0.1c1.7-0.2,3.5-0.1,5.4-0.1c1.6,0,2.2-0.9,2.3-2.1c0.1-0.8,0.2-2.4,0.1-3.5
		C216.7,110.7,216.5,110.3,216.3,110.1z"/>
	<path class="st0" d="M239.2,104.8c-0.6-0.1-3.9-0.1-4,1c-0.1,1.5,3.3,0.7,3.6,2c-0.1,0.4-0.1,0.8-0.1,1.2c-0.1,1.9-1,5.8-3.3,6.1
		c-2.7,0.4-4-2.1-4.4-4.2c-0.9-4.2-0.2-8.4,1.1-12.5c0.3-0.9,2-3.7,3.7-3.7c2.9,0.1,2.8,3.7,2.7,4.3c-0.4,0.6-0.9,0.7-1.2,0.9
		c-0.1,0.1-0.2,0.1-0.2,0.3c0,0.7,1.7,0.7,2.7,0.8c0.6,0.1,2.4-0.2,2.4-0.7c0-0.2-0.2-0.4-0.3-0.5c-0.7-0.1-1-1.5-1.3-3.1
		c-0.5-2.2-2-4.2-4.3-4.3c-2.9-0.1-5.6,1.4-7.3,3.9c-1.3,1.9-1.9,4.5-2.2,7.5c-0.4,3.6-0.6,6,0.7,9.3c0.3,0.9,1.1,1.9,1.8,2.6
		c1.4,1.2,3.1,1.3,4.9,1.4c4.8,0.2,6.7-4.1,7-8.9c0.2-1.6,1.2-1.5,1.2-2.1C242.3,104.9,239.7,104.8,239.2,104.8z"/>
	<path class="st0" d="M247,93c-1.1-0.1-3.1-0.2-3.4,0.6c-0.1,0.2,0.2,0.3,0.3,0.4c0.6,0.4,1.1,0.4,1.2,1c0.1,1.2-0.9,16.8-0.9,20.5
		c-0.2,0.6-0.7,0.6-1.2,0.9c-0.1,0.1-0.3,0.2-0.3,0.4c0,0.5,2.2,0.8,3.2,0.8c0.9,0.1,3.2,0,3.2-0.5c0-0.3-0.1-0.3-0.2-0.4
		c-0.5-0.4-1.2-0.5-1.3-1c-0.2-1.8,1.1-16.7,1.3-20.4c0.2-0.6,0.7-0.6,1.2-0.9c0.1-0.1,0.3-0.2,0.3-0.4C250.1,93.4,248,93,247,93z"
		/>
	<path class="st0" d="M266.5,94.2c-1-0.1-3.8-0.3-3.9,0.2c0,0.3,0.2,0.4,0.3,0.4c0.6,0.3,1.3,0.8,1.8,1.3
		c-0.3,0.9-3.1,11.2-4.5,16.5c-1.4-6.2-2.4-13.3-3.2-17.2c0.7-0.6,0.8-0.7,1.5-0.8c0.2,0,0.3-0.2,0.3-0.5c0-0.6-2.6-0.7-3.7-0.7
		c-1.1-0.1-3.6-0.1-3.6,0.5c-0.1,0.2,0.1,0.4,0.3,0.4c0.6,0.3,1,0.5,1.4,1.1c0.1,0,3.2,16.7,3.9,21c-0.2,0.2-0.4,0.4-0.8,0.6
		c-0.1,0.1-0.3,0.2-0.3,0.4c0,0.5,2.2,0.8,3.2,0.9c1,0.1,2.9,0.1,3-0.5c0-0.3,0.1-0.4-0.1-0.4c-0.5-0.3-0.7-0.5-1-0.9
		c0.4-1.1,4.3-15.5,5.6-20c0.1-0.1,0.1-0.1,0.1-0.1c0.8-0.7,1.3-0.7,1.8-0.9c0.2-0.1,0.3-0.3,0.3-0.5
		C268.8,94.5,267.5,94.3,266.5,94.2z"/>
	<path class="st0" d="M282.2,95.7c-3.3-0.3-6.3-0.7-9.2-0.9c-1-0.1-3.4-0.2-3.4,0.4c0,0.2,0.2,0.4,0.3,0.4c0.5,0.4,0.7,0.5,1.2,1.1
		c0.2,0.3,0.4,0.8,0.4,1.3c-0.5,6-1,11.9-1.5,17.8c-0.2,0.6-0.4,1-0.6,1.2c-0.5,0.5-0.7,0.6-1.3,0.9c-0.1,0.1-0.3,0.1-0.3,0.4
		c0,0.6,2.2,0.9,3.2,1c1.2,0.1,2.3,0.2,3.5,0.3c1.7,0.1,3.5,0.3,5.4,0.5c1.6,0.2,2.3-0.7,2.6-1.8c0.1-0.8,0.3-2.4,0.4-3.5
		c0-0.4-0.2-0.8-0.3-1.1c-0.1-0.2-0.4-0.3-0.6-0.3c-0.3-0.1-0.6,0.1-0.7,0.3c-0.4,0.8-0.2,2.6-1.3,3.7c-0.9,0.8-3.2,0.5-5.2,0.3
		c-0.5-0.1-0.9-0.1-1.3-0.2c0.4-3.1,0.7-6.3,1.1-9.5c0.9,0.1,1.6,0.4,2.1,0.9c0.7,0.7,0.6,1.2,0.8,1.7c0.1,0.1,0.2,0.3,0.5,0.3
		c0.5,0,0.9-2.3,1-3.3c0.1-1,0.1-3.1-0.4-3.2c-0.3-0.1-0.4,0.1-0.4,0.2c-0.3,0.6-0.5,1.1-1.1,1.5c-0.6,0.4-1.3,0.4-2.1,0.4
		c0.4-3.1,0.7-6.2,1.1-9.3c0.3,0.1,0.6,0.1,0.8,0.1c2,0.2,4.5,0.3,5.2,1.3c0.9,1.3,0.4,3.1,0.6,3.9c0.1,0.2,0.3,0.4,0.6,0.4
		c0.2,0,0.5,0,0.6-0.2c0.2-0.3,0.4-0.6,0.5-1c0.3-1.1,0.3-2.8,0.4-3.5C284.4,96.8,283.8,95.8,282.2,95.7z"/>
	<path class="st0" d="M293.7,103.9c-0.1,0.4,0.9,1,1.8,1c0.3,0.1,0.7,0,1-0.2c1.6-0.8,2.1-4.9-0.6-7.2c-1.1-1-3-1.3-4.4-1.2
		c-2.2,0.2-6.3,1.4-6.2,5.7c0.2,5.4,7.2,10.3,6.9,13.7c-0.2,2.8-2.3,4.2-4.1,4c-1.2-0.1-2.9-1.6-2.7-3.4c0.1-0.9,0.2-1.5,0.5-1.9
		c0.4-0.8,1.8-0.7,1.9-1.4c0.1-0.5-0.3-0.7-0.7-0.7c-0.5-0.1-1.5-0.1-2.4,0.6c-0.7,0.5-1,1.9-1.1,3.1c-0.2,2,1.1,4.9,4.3,5.4
		c1.4,0.2,3.5,0.3,4.8-0.3c1.6-0.8,3.8-2.2,3.8-5.6c0-3.1-4.1-7.7-5-9.2c-1.3-1.8-2.5-3.4-1.9-5.8c0.3-1.2,1.3-2,2.6-2.1
		c3-0.4,4.2,2,3.4,4.4C294.9,103.5,293.9,103.3,293.7,103.9z"/>
	<path class="st0" d="M324.9,101.4c-1-0.3-3.8-0.7-3.9-0.2c-0.1,0.3,0.1,0.4,0.2,0.5c0.5,0.3,1.2,0.7,1.5,1.3
		c-0.2,0.5-2.9,4.3-5.5,7.9c-1.1-3.3-2.2-6.6-2.7-9.2c0.7-0.5,0.9-0.6,1.5-0.7c0.2,0,0.3-0.2,0.4-0.5c0-0.5-2.6-0.9-3.6-1
		c-1.1-0.2-3.6-0.4-3.7,0.2c0,0.2,0.1,0.4,0.2,0.4c0.6,0.4,1,0.5,1.4,1.2c0,0,3.1,10,3.5,11.1c-0.4,3.3-0.9,6.6-1.3,9.9
		c-0.6,0.4-0.8,0.5-1.3,0.7c-0.2,0.1-0.3,0.1-0.4,0.4c0,0.5,2.1,1,3.1,1.2c1,0.2,3.2,0.4,3.3-0.2c0.1-0.3-0.1-0.3-0.2-0.5
		c-0.4-0.4-0.9-0.6-1.2-1.1c0.4-2.1,1-5.8,1.7-9.9c2.6-3.6,5.2-7.4,6.6-9.2c0-0.1,0-0.1,0.1-0.2c0.9-0.5,1.3-0.5,1.9-0.6
		c0.2,0,0.4-0.2,0.4-0.4C327.2,102,326,101.6,324.9,101.4z"/>
	<path class="st0" d="M334.6,102.5c-3.3-0.6-7.2,0.3-9.8,6c-1.4,3.1-2,6.9-1.8,10.3c0.4,7.1,5.5,8.7,7.9,8.1
		c5.4-1.2,8.5-8.8,9.1-13.4C340.8,107.7,338.4,103.2,334.6,102.5z M337.5,113.9c-1,5-4.4,10.9-7.2,10.6c-1.9-0.3-3.3-2.7-3.4-5
		c-0.2-4.1,0.8-8.8,2.8-12.6c0.8-1.6,2.8-3.1,4.9-2.5C336.1,105,338.6,108,337.5,113.9z"/>
	<path class="st0" d="M357.1,107.5c-1.1-0.2-3.9-0.9-4-0.4c-0.1,0.2,0.1,0.4,0.2,0.5c0.6,0.4,1.3,1,1.6,1.6c0,0-1.9,8.6-2.6,11.4
		c-1.5,6.2-3.2,8.3-5.6,7.9c-3.3-0.6-2.9-4.7-1.8-9.7c0.8-3.8,1.5-7.6,2.3-11.3c0.6-0.4,0.8-0.5,1.4-0.7c0.1-0.1,0.3-0.1,0.3-0.3
		c0.1-0.5-2.3-1.2-3.3-1.4c-1-0.2-3.4-0.5-3.5,0.1c-0.1,0.2,0.1,0.4,0.2,0.4c0.4,0.5,0.7,0.6,1,1.2c0,0,0,0,0,0.1
		c-0.4,2.2-1.2,6.1-1.9,10.1c-1.2,6.2-2.3,12.8,5.1,13.4c3.8,0.3,6.4-2.2,7.8-8.7c0.9-4,1.7-8,2.6-12c0.9-0.5,1.3-0.6,1.9-0.6
		c0.2,0,0.3-0.2,0.4-0.5C359.4,108.1,358.2,107.8,357.1,107.5z"/>
</g>
<g>
	<path class="st0" d="M287.9,219.8c0,0.2,0.1,0.3,0.1,0.5l12,3.7l-10.5-5.9C289,218.7,288.5,219.2,287.9,219.8z"/>
	<path class="st0" d="M153.4,218.5c-0.2,0.4-0.6,0.8-0.9,1.1c-0.3,0.3-0.7,0.6-1,0.8c-0.1,0.1-0.2,0.1-0.2,0.2l0.3,3.2l9.1,5.1
		c-0.1-1.7-0.2-3.4-0.3-5L153.4,218.5z"/>
	<polygon class="st0" points="23.9,261.8 39.1,250.3 38.4,247.1 	"/>
	<path class="st0" d="M110.6,228.9c-0.4,0.6-0.6,1.3-0.7,1.9c-0.2,1.2-0.4,2.4-0.5,3.6l13.5,8.5l0.8,0.5l-0.8-0.9L110.6,228.9z"/>
	<path class="st0" d="M346.9,200.5l-8.4,4.1l-12.1-8.5l-5.3,1.7l-46.9-49.9l0,0l-9,1.2l-9.9-6.3l-5.9,14.4l-9.2,6l-10.3,2.9l0,0
		l-9.6-10.6l-11.5-3.1l-6.1,3.8l-11.4-18.7l-6.1,3.3l-8.2-15l-12,15.5l-3.1,12.8l-19.2,12.9l0,0l-9.4-1.6L123,182.8l0,0l-7.2-0.4
		l-9.3,8.7l-4.4-0.3l-17.5,13.7l-4.6,0.6l-22.4,22.6c0.1,0.1,0.1,0.2,0.1,0.3c0.3,1.4,0.1,2.9-0.6,4.1c0.7,1,1.4,2,2,3.1l10.3-7.7
		c-0.3-0.5-0.5-1-0.6-1.6c-1.1-6.2,7.1-8,11-8.8c6.4-1.1,10.7-0.8,12.9,0.8c1,0.7,1.7,2,2.1,3.2c1.3-1.8,2.8-3.4,4.2-4.6l-6.8-7.5
		l10.8-9.6l7,1.8l11.5,10.9h0.1c2.1,0.9,4.2,2.1,6.1,3.8c0.1-0.4,0.2-0.8,0.3-1.2l-0.8-1l-14.9-20.4l3.5-4.5l6.1,2.9l15.7,17.7
		c1-0.2,1.8-0.3,2.6-0.3c0.4-0.1,0.9-0.1,1.4-0.2l0.8,1l1-1.1c0.6,0,1.3,0,2,0.1l-0.9-1.2l7.9-8.5l10.1,8.1c1.5-0.2,3.4-0.3,5.6-0.4
		l0.8-0.1c3.1-0.2,5.3,0,6.9,0.6c0.5-0.2,0.9-0.4,1.4-0.5l-18.3-13.9l-12.5-2.8l-7.5,10.4l-10.6-13.6l7.4-13.7l10.9,1l16.3,11.6
		l29.5,5.6l-23.2-11l-14.6-9.7l0,0l13.6-10l3.3-15l4.9-7l15.1,16.3l6.9,17.9l15.2-11.7l19.5,29.7l21.3,15.2l3.4,0.2
		c3.4,0.2,6.1,1.4,7.9,3.4c1.3-1.2,3.2-1.9,5.9-2.1l-8.8-5l-1.2-8.7l-14.4-9L236.1,173l15.3-8.4l5.9-11.6l7.4,2.3l12.7,2v0l1.2,3.7
		l-2.2,12.6l22.3,16.9l2.1,14.8l8.3,5.3h0.1c0.8,0.1,1.4,0.2,2,0.2c4.4,0.5,7.2,1.4,8.9,2.5c2.2-1,5.2-0.8,9.5-0.2
		c2.6,0.4,5.7,0.8,7.4,3.6c0.9,1.6,1.1,3.4,0.4,5.3c-0.2,0.6-0.5,1.2-0.8,1.6c0.8,1.8,1.6,3.8,2.5,6.1l1.4,0.9l-0.2-14.9l7.2,4.9
		c0.4-0.9,1-1.7,1.8-2.3c2.3-1.6,5.3-1.4,11.6-0.3c2.3,0.4,5.2,0.9,6.9,3.4c0.6,0.8,0.9,1.7,1,2.7c1-0.5,1.9-1,3-1.3l-1.7-0.2
		L346.9,200.5z"/>
	<path class="st0" d="M382.7,236.6h-0.3c-0.4,0-0.7,0.1-1,0.2l2.4,2.2c0.6-0.2,1.1-0.3,1.5-0.4c0.1-0.6-0.1-1-0.3-1.2
		C384.8,236.9,383.9,236.6,382.7,236.6z"/>
	<path class="st0" d="M397.6,248.4c-0.5,0.7-1,1.3-1.5,1.7l11.9,10.9L397.6,248.4z"/>
	<path class="st0" d="M202.1,183.4l-12,23.7c0.7,0.4,1.3,0.8,1.8,1.4c1.2,1.4,1.7,3.2,1.3,5.1c-0.1,0.7-0.3,1.2-0.6,1.7
		c0.5,0.8,1.1,1.7,1.7,2.6l12-20.7l6.5,8.4c0.8-0.1,1.7-0.1,2.7-0.1c1.9,0,4.3,0.1,6.3,1.4c0.8-0.4,1.7-0.8,2.7-1l-7.1-13.5
		L202.1,183.4z"/>
	<path class="st0" d="M231.3,225.3c0,0.2-0.1,0.4-0.1,0.6l1.2,0.3l0.1-4.8c-0.3,0.1-0.5,0.1-0.7,0.2
		C231.5,222.3,231.3,224.2,231.3,225.3z"/>
	<path class="st0" d="M253.4,229.9c-0.3-1-0.4-2-0.4-3l-1.3-0.7c-0.1,1.6-0.2,3.3-0.3,4.9l3.2,0.8c-0.3-0.2-0.4-0.5-0.6-0.7
		C253.7,230.8,253.5,230.4,253.4,229.9z"/>
	<polygon class="st0" points="122,151.3 110.9,138.6 109.6,140 120.7,152.8 	"/>
	<polygon class="st0" points="164.4,121 157.9,102.8 156.2,103.6 162.7,121.8 	"/>
	<polygon class="st0" points="152,86.8 148.4,77.2 146.8,78 150.3,87.6 	"/>
	<polygon class="st0" points="143.7,64.9 140.8,56.5 139.1,57.3 142.1,65.7 	"/>
	<polygon class="st0" points="81.1,186.5 92.3,192.8 93.1,190.9 81.8,184.6 	"/>
	<polygon class="st0" points="68.3,177.1 60.2,172.5 59.4,174.4 67.5,178.9 	"/>
	<polygon class="st0" points="41.9,164.6 48.5,168.3 49.3,166.4 42.7,162.7 	"/>
	<polygon class="st0" points="149.5,147.7 140.9,133.5 137.3,127.4 135.8,128.5 148,148.9 	"/>
	<polygon class="st0" points="187.7,84.2 186,73.3 184.8,66 183,66.3 186,84.6 	"/>
	<polygon class="st0" points="114.4,178.7 115.4,177 102.3,166.3 101.3,168 106.5,172.3 	"/>
	<polygon class="st0" points="88.2,157.2 89.2,155.6 76.1,144.8 75,146.5 80.3,150.8 	"/>
	<rect x="214.9" y="117.6" class="st0" width="1.8" height="25.9"/>
	<rect x="214.9" y="62.1" class="st0" width="1.8" height="10.4"/>
	<rect x="214.9" y="39.5" class="st0" width="1.8" height="12.6"/>
	<polygon class="st0" points="304.3,159.7 303,158.2 296.7,165.6 297.9,167 	"/>
	<polygon class="st0" points="321.3,140 320,138.6 313.7,145.9 314.9,147.4 	"/>
	<polygon class="st0" points="265.3,129.1 263.6,128.3 260.1,137.9 261.8,138.7 	"/>
	<polygon class="st0" points="284.2,78 282.5,77.2 279,86.8 280.6,87.6 	"/>
	<polygon class="st0" points="291.8,57.3 290.2,56.5 287.4,63.8 289.1,64.6 	"/>
	<polygon class="st0" points="349.9,186.5 349.1,184.6 337.4,191.4 338.1,193.3 	"/>
	<polygon class="st0" points="371.5,174.4 370.7,172.5 362.6,177.1 363.4,178.9 	"/>
	<polygon class="st0" points="380.6,167.1 381.4,168.9 389.1,164.6 388.3,162.7 	"/>
	<polygon class="st0" points="282.7,146 284.2,147.1 295.1,128.5 293.7,127.4 290,133.5 	"/>
	<polygon class="st0" points="234.8,146.7 236,139.4 234.2,139 231.3,157.2 233,157.6 	"/>
	<polygon class="st0" points="246.7,73.6 247.9,66.3 246.2,66 243.2,84.2 244.9,84.6 	"/>
	<polygon class="st0" points="316.5,178.7 324.4,172.3 329.7,168 328.6,166.3 315.5,177 	"/>
	<polygon class="st0" points="350.7,150.8 355.9,146.5 354.9,144.8 341.7,155.6 342.8,157.2 	"/>
</g>
<g>
	<path class="st0" d="M99.7,276.7c0.2,1.3-6.2,2.1-8.6,2.5c-2.4,0.4-5.2,0.6-5.4-0.5c-0.1-0.6,0.1-1.1,0.4-1.3
		c1.1-0.7,2.1-1.2,3.4-3.1c0,0,0.1-0.1,0.1-0.1c-2.1-12.8-4.3-25.5-6.4-38.3c-2.8,11.3-5.4,22.6-7.9,34c-0.8,2-4.7,0.9-4.7,0.9
		c-6.2-10.1-12.6-20.1-19.2-30c2.6,13.2,5.2,26.4,7.8,39.6c1.1,0.9,2.4,0.9,3.6,1.5c0.3,0.2,0.6,0.3,0.7,0.9
		c0.2,1.2-4.9,2.6-7.1,3.1c-2.3,0.5-7.6,1.3-7.9,0.1c-0.1-0.6,0.2-0.9,0.4-1.1c1.1-1,1.5-1.5,2.2-2.7c-3.5-15.8-6.9-31.5-10.4-47.3
		c-1.3-1-1.9-1.2-3.4-1.6c-0.3-0.1-0.7-0.2-0.8-0.7c-0.3-1.2,5.2-2.9,7.7-3.4c2.3-0.5,8.1-1.2,8.3,0c0.1,0.5-0.1,0.8-0.4,0.9
		c-0.7,0.8-1.3,1.1-1.7,1.7c6.4,9.6,12.7,19.2,18.9,28.9c2.4-11.3,5-22.5,7.8-33.8c-0.9-0.5-1.7-0.6-2.6-1c-0.3-0.1-0.7-0.2-0.8-0.7
		c-0.2-1.1,4.3-2.4,7.1-3c3.2-0.5,8.9-0.9,9.1,0.3c0.1,0.5-0.3,0.8-0.4,0.9c-1.3,1-1.8,1.4-2.6,2.8c0,0-0.1,0-0.1,0.1
		c2.4,15.8,4.8,31.7,7.2,47.5c1.2,1.2,3.3,1.9,4.9,2.2C99.2,275.9,99.7,276.2,99.7,276.7z"/>
	<path class="st0" d="M122,273.8c-5.1,3-17.6,3.1-23.9-12.5c-2.9-7.5-4.4-16.4-3.5-24.5c1.8-14.8,10.2-19.7,18.3-20.7
		c9.3-1.2,18.1,7.3,20.4,21.1C135.2,247.8,133.2,267.3,122,273.8z M127.9,239.7c-1.5-14.1-9.6-19.1-13.6-19c-5.3,0.2-8.7,5-9.4,9.2
		c-1.7,9.8-0.5,21.2,2.9,30.3c1.9,4.9,6.8,9.4,11.4,8.6C125.4,267.5,129.2,251.8,127.9,239.7z"/>
	<path class="st0" d="M174.8,213.1c0,0.6-0.2,1.1-0.6,1.3c-1.4,0.6-2.5,1-4.1,2.7c0.6,9.6,1.1,19.2,1.7,28.9
		c0.9,15.8-3.4,23.1-12.2,24.9c-17,3.6-19.1-12.2-20.5-27c-0.9-9.4-2-18.9-2.5-24.1c0,0,0-0.1,0-0.1c-1-1.1-1.9-1.3-3.1-2
		c-0.3-0.1-0.7-0.3-0.7-0.8c-0.1-1.2,5.5-2.3,8-2.5c2.4-0.2,8.5-0.3,8.6,1c0,0.5-0.3,0.8-0.5,0.9c-1.4,0.9-1.9,1.3-2.8,2.6
		c0.8,9,1.6,18.1,2.4,27.1c1.1,12.1,2.9,21.7,10.7,20.9c5.8-0.7,8.1-6.7,7.6-21.7c-0.3-6.9-1.5-27.7-1.5-27.7
		c-1.1-1.3-3.3-2.2-4.9-2.6c-0.3-0.1-0.7-0.4-0.7-0.9c-0.1-1.4,6.9-1.6,9.6-1.7C171.7,211.9,174.7,212,174.8,213.1z"/>
	<path class="st0" d="M219.7,212.2c0,0.5-0.4,1.2-0.8,1.2c-1.3,0.6-1.2,0.5-2.2,1.2c0,0.1,0,0.2,0,0.2c-0.3,9.2-0.8,40.8-0.3,50.1
		c0.6,1.1,0.7,1.3,2.1,1.7c0.4,0.1,0.6,0.5,0.6,1c0,1.3-4.2,1.1-6.5,1.1c-2,0-3.1-0.1-3.7-0.5c-0.2-0.1-0.4-0.2-0.4-0.4
		c-5.2-6.1-14.9-23.1-22.5-35.2c0.3,11.6,0.7,25,1.1,31.5c0,0,0,0.1,0,0.1c1.2,1.3,2.2,2.4,3.6,2.8c0.3,0.1,0.6,0.5,0.7,1
		c0,1.3-5.4,1.3-7.7,1.4c-2.5,0.1-4-0.1-4-1.2c0-0.6,0.2-1.1,0.6-1.3c1-0.3,1.4-0.8,2.5-2.3c-0.7-16.5-1.5-33.1-2.2-49.6
		c-0.8-0.8-0.8-0.8-2.3-1.5c-0.3-0.1-0.7-0.5-0.7-0.9c-0.1-1.2,4.9-1.3,7.5-1.4c2.7-0.1,3.7,0.1,3.5,1.3c-0.1,0.7-1.1,1.3-2.2,2
		c5.5,7.3,16.5,27.4,25.4,41.7c-0.1-13.9-0.1-27.9-0.2-41.8c-0.7-1.2-1.3-1.5-2.9-1.8c-0.3-0.1-0.7-0.5-0.7-1c0-1.2,5.6-1.2,8.2-1.2
		C218.7,210.7,219.7,211,219.7,212.2z"/>
	<path class="st0" d="M262.3,226.5c-0.2,1-0.6,1.8-1,2.4c-0.3,0.3-0.9,0.4-1.5,0.4c-0.8,0-1.3-0.4-1.5-0.8c-0.6-2,0.5-7-1.9-9.9
		c-1.5-1.8-5.2-2.1-9.4-2.2c-0.8,16-1.6,32.1-2.3,48.1c0.8,1.1,1.9,1.4,3,2.3c0.2,0.3,0.6,0.4,0.6,1c0,1.2-5.4,1.4-7.7,1.3
		c-2.3-0.1-7.6-0.6-7.6-1.8c0-0.6,0.4-0.9,0.6-1c1.3-0.7,2-1.1,3-2.1c0.4-16,0.8-32.1,1.2-48.1c-4.2-0.1-7.9,0-9.5,1.7
		c-2.5,2.8-1.8,7.8-2.5,9.8c-0.3,0.4-0.8,0.7-1.6,0.7c-0.5,0-1.2-0.1-1.4-0.5c-0.4-0.6-0.8-1.5-0.9-2.5c-0.2-2.7-0.1-7.8,0.1-9.6
		c0.1-2.8,1.7-5,5.9-5c5.2,0.1,9.4,0.3,14.3,0.2c5.4,0.3,9.9,0.5,15.1,0.7c4.1,0.2,5.6,2.5,5.6,5.3
		C262.9,218.7,262.7,223.9,262.3,226.5z"/>
	<path class="st0" d="M294.2,271c-0.1,1.2-5.7,1-8.2,0.8c-2.6-0.2-8.6-0.6-8.5-1.7c0-0.6,0.3-1.2,0.8-1.2c1.4-0.3,1.8-0.6,3.3-1.8
		c-0.8-3.5-1.3-8.3-2.4-13.8c-0.1,0-0.2-0.1-0.2-0.3c-1.5-2.2-9.1-2.6-10.9-1.3c-0.2,0.2-0.4,0.4-0.5,0.6c-1.9,6.6-3,12-3.4,12.9
		c0.9,1.4,2.7,2.5,4,3.1c0.2,0.1,0.6,0.5,0.6,1c-0.1,1.3-6.5,0.7-8.8,0.6c-2.5-0.1-5.3-0.5-5.2-1.6c0-0.6,0.3-1.1,0.7-1.2
		c1.3-0.4,2.3-0.7,4.1-2.2c0-0.1,0-0.2,0.1-0.4c3.1-10.8,9.9-38.5,12.6-47c0,0,0-0.1,0-0.1c-1-1.3-1.5-1.7-2.8-2.5
		c-0.3-0.1-0.8-0.4-0.6-0.9c0.3-1.1,5.8-1.4,8.3-1.2c2.5,0.2,8,1.1,8.1,2.3c0,0.4-0.4,0.6-0.7,0.8c-1,0.7-1.4,0.9-2,1.6
		c1.4,10,8.3,49.8,8.2,49.8c1,1.5,1.7,1.9,3.1,2.5C293.9,270,294.3,270.4,294.2,271z M278.2,247.6c-1-6.8-2.6-14.5-3.8-21
		c-1.7,5.5-3.5,13.4-5.5,20.3C270.9,248.2,275.6,248.5,278.2,247.6z"/>
	<path class="st0" d="M314.7,221.4c-0.9,8.9-6.3,43.8-6.2,48c0.1,1.4,1.9,1.6,2.9,2.6c0.2,0.3,0.4,0.4,0.4,1
		c-0.2,1.2-5.5,0.9-7.7,0.7c-2.3-0.3-7.6-1.2-7.5-2.4c0.1-0.6,0.5-0.8,0.7-0.9c1.3-0.6,2.6-0.6,2.9-1.9c0.7-8.8,5.1-45.4,5.2-48.1
		c0-1.6-1.4-1.8-2.7-2.6c-0.2-0.1-0.9-0.5-0.6-0.9c1-1.6,5.9-1.1,8.4-0.8c2.4,0.3,7.6,1.4,7.8,2.7c0.1,0.5-0.4,0.7-0.6,0.8
		C316.6,220.1,315.2,220,314.7,221.4z"/>
	<path class="st0" d="M363.7,225.2c-0.1,0.5-0.6,1.1-1,1.1c-1.4,0.4-1.3,0.3-2.4,0.8c0,0.1,0,0.2,0,0.2c-1.9,9-7.9,40-9,49.3
		c0.4,1.2,0.5,1.5,1.8,2.1c0.3,0.2,0.5,0.6,0.4,1.1c-0.2,1.3-4.3,0.3-6.7,0c-2-0.3-3-0.6-3.6-1.1c-0.2-0.2-0.3-0.3-0.3-0.4
		c-4.1-6.9-10.7-25.4-16.1-38.6c-1.7,11.5-3.6,24.7-4.4,31.2c0,0,0,0.1,0,0.1c0.9,1.5,1.8,2.7,3,3.4c0.2,0.2,0.5,0.6,0.5,1.1
		c-0.2,1.3-5.5,0.3-7.9,0c-2.5-0.3-3.9-0.7-3.8-1.8c0.1-0.6,0.4-1.1,0.8-1.1c1-0.1,1.6-0.5,2.9-1.9c2.1-16.4,4.3-32.8,6.4-49.2
		c-0.7-1-0.7-1-2-1.9c-0.2-0.2-0.6-0.6-0.5-1.1c0.2-1.2,5-0.5,7.7-0.1c2.6,0.4,3.7,0.8,3.2,1.9c-0.2,0.7-1.4,1-2.5,1.6
		c4.2,8.1,11.5,29.9,17.9,45.5c2.4-13.7,4.7-27.5,7.1-41.2c-0.5-1.3-1.1-1.7-2.6-2.3c-0.2-0.2-0.6-0.6-0.5-1.1
		c0.2-1.2,5.7-0.2,8.3,0.3C362.9,223.6,363.9,224,363.7,225.2z"/>
	<path class="st0" d="M389.1,272.8c-0.7,7.8-6.4,10.8-10.2,12.2c-3.2,1.1-8.2,0.4-11.5-0.4c-7.4-1.8-9.8-8.7-9.2-13.5
		c0.3-2.6,1.3-5.9,3.2-7c2.2-1.3,4.6-1.1,5.6-0.9c0.9,0.2,1.7,0.7,1.5,1.8c-0.3,1.7-3.7,1.3-4.7,3c-0.7,0.9-1.2,2.3-1.5,4.5
		c-0.7,4.2,3,8.1,5.9,8.5c4.2,0.7,9.5-2.1,10.6-8.6c1.4-7.9-14.6-21.1-14.1-33.7c0.5-10.1,10.8-12.3,16.2-12.2
		c3.5,0.1,8.1,1.3,10.5,3.8c6.1,6.1,3.9,15.5,0,17c-0.9,0.3-1.8,0.4-2.6,0.2c-2.3-0.4-4.4-2.1-4.2-2.9c0.5-1.3,3-0.5,4.9-1.8
		c2.7-5.6,0-11.4-7.2-11.2c-3.1,0.1-5.9,1.8-6.7,4.5c-1.7,5.4,0.8,9.4,3.5,13.9C380.9,253.7,389.7,265.5,389.1,272.8z"/>
</g>
<g>
	<path class="st0" d="M295.9,281.5h-160c-16.9,0-30.7,13.8-30.7,30.7c0,16.9,13.8,30.7,30.7,30.7h160c16.9,0,30.7-13.8,30.7-30.7
		C326.6,295.3,312.8,281.5,295.9,281.5z M143.2,313.8c-0.3,0.3-0.6,0.4-1,0.4c-0.3,0-0.5,0-0.7,0c-0.1,0-0.1,0-0.3,0
		c-0.1,0-0.2,0-0.3,0c-1.1,0-1.7,1.3-1.7,3.8v3.1c0,0.7,0,1.3,0.1,1.8c0.1,0.5,0.1,1,0.1,1.3c0,1.1-0.5,1.6-1.4,1.6
		c-0.9,0-1.4-0.5-1.4-1.4l0.1-0.9c0-0.2,0.1-0.6,0.1-1.2c-0.6,0.8-1.1,1.4-1.4,1.7c-1.5,1.3-3.6,2-6.3,2c-3.4,0-6-1.2-8.1-3.7
		c-2.1-2.5-3.1-5.7-3.1-9.8c0-4.3,1.1-7.7,3.1-10.3c2.1-2.6,4.9-3.9,8.5-3.9c2.6,0,5,1,7.1,2.9c-0.1-0.4-0.2-0.6-0.2-0.6
		c-0.1-0.5-0.1-0.8-0.1-0.9c0-0.9,0.4-1.3,1.3-1.3c0.9,0,1.4,0.6,1.4,1.7c0,0.4,0,0.6,0,0.8l-0.3,1.9c-0.1,0.5-0.1,1.1-0.1,1.8
		c0,0.5,0.1,1.5,0.2,3.2v0.3c0,1.2-0.5,1.8-1.4,1.8c-0.9,0-1.4-0.6-1.4-1.9v-1.2c0-1.8-0.6-3.2-1.8-4.2c-1.2-1-2.8-1.6-4.8-1.6
		c-2.5,0-4.5,1-5.9,2.9c-1.4,2-2.1,4.6-2.1,8c0,3.6,0.7,6.4,2.2,8.5c1.5,2,3.5,3,6.1,3c2,0,3.5-0.6,4.6-1.8c1.1-1.2,1.6-2.9,1.6-5
		c0-0.9-0.1-1.5-0.4-1.9c-0.3-0.4-0.8-0.5-1.6-0.5c-0.2,0-0.5,0-0.9,0.1c-0.4,0-0.7,0.1-0.9,0.1c-1.2,0-1.9-0.4-1.9-1.3
		c0-0.9,0.5-1.4,1.6-1.4c0.3,0,0.7,0,1.1,0.1c1.6,0.2,2.9,0.3,3.9,0.3c1.3,0,2.6-0.1,4-0.3c0.3,0,0.7-0.1,1.1-0.1
		c1,0,1.6,0.4,1.6,1.3C143.6,313.3,143.4,313.6,143.2,313.8z M167.8,321.9c0,0.7,0.1,1.3,0.1,1.6c0,1.2-0.6,1.8-1.8,1.8
		c-0.3,0-0.7,0-1.4-0.1c-0.3,0-0.9,0-1.7,0c0.2,0-0.8,0-3-0.1c-2.2-0.1-4.1-0.1-5.7-0.1c-2.4,0-4.8,0.1-7.2,0.3c-0.1,0-0.2,0-0.4,0
		c-0.1,0-0.2,0-0.2,0c-1.1,0-1.6-0.5-1.6-1.4c0-0.8,0.4-1.2,1.2-1.2c0.1,0,0.5,0,1.1,0.1c0.3,0.1,0.6,0.1,0.8,0.1c1.3,0,2-1,2-2.9
		v-15.6c0-1.9-0.7-2.9-2-2.9c-0.4,0-0.6,0-0.8,0.1c-0.4,0.1-0.8,0.1-1.1,0.1c-0.3,0-0.6-0.1-0.9-0.4c-0.2-0.2-0.4-0.6-0.4-0.9
		c0-0.9,0.5-1.4,1.6-1.4c0,0,0.2,0,0.6,0c3.9,0.3,5.7,0.4,5.4,0.4h0.4l9.4-0.3c0.2,0,0.9,0,2-0.1c0.4,0,0.8,0,1.1,0
		c1.3,0,2,0.6,2,1.8c0,0.2,0,0.9-0.1,2c-0.1,0.8-0.1,1.6-0.1,2.3c0,0.9,0,1.5,0.1,1.9c0.1,0.8,0.1,1.3,0.1,1.7c0,1-0.5,1.5-1.4,1.5
		c-0.9,0-1.4-0.7-1.4-2.1v-2c0-2.2-0.5-3.5-1.4-3.9c-0.7-0.3-2.4-0.4-5.2-0.4c-1.8,0-2.9,0-3.3,0.1c-1.1,0.3-1.7,1.1-1.7,2.4v1.8
		c0,0.2,0,0.5,0,0.9s0,0.6,0,0.8v0.5c0,1,0.2,1.6,0.7,1.8c0.2,0,0.5,0.1,0.9,0.1h1.6c1.6,0,2.4-0.6,2.4-1.7c0-0.3,0-0.7-0.1-1.2
		c-0.1-0.5-0.1-0.9-0.1-1.3c0-1,0.5-1.6,1.4-1.6c0.9,0,1.4,0.6,1.4,1.7c0,0.2-0.1,1-0.3,2.4c-0.1,1.2-0.2,2.2-0.2,3.2
		c0,0.5,0,1.4,0.2,2.8c0,0.2,0.1,0.7,0.2,1.4c0.1,0.6,0.1,1,0.1,1.4c0,0.9-0.5,1.4-1.4,1.4c-0.9,0-1.4-0.5-1.4-1.6
		c0-0.3,0-0.7,0.1-1.2c0.1-0.5,0.1-1,0.1-1.2c0-1.1-0.7-1.7-2.2-1.7h-1.8c-0.8,0-1.2,0.1-1.4,0.4c-0.2,0.3-0.3,0.8-0.3,1.7v2.4
		c0,0.4,0,1,0,1.7c0,0.9,0,1.4,0,1.7c0,1,0.2,1.7,0.6,1.9c0.3,0.2,1,0.3,2,0.3h5.3c1.5,0,2.6-0.2,3.2-0.7c0.6-0.5,0.9-1.3,0.9-2.5
		c0-0.4,0-1-0.1-1.7c0-0.8-0.1-1.3-0.1-1.7c0-1.2,0.5-1.8,1.4-1.8c1,0,1.5,0.6,1.5,1.8c0,0.5,0,1.2-0.1,2.1c0,1-0.1,1.7-0.1,2.1
		C167.7,320.6,167.8,321.1,167.8,321.9z M194.1,300.7c0,0.3,0,0.7-0.1,1.4c-0.1,0.7-0.1,1.5-0.2,2.3v0.4c0,0.4,0,1,0.1,1.8
		c0.1,1.1,0.2,1.8,0.2,2c0,1.1-0.5,1.6-1.5,1.6c-1,0-1.5-0.7-1.5-2c0-0.5,0-1.2,0.1-2.1c0.1-0.9,0.1-1.6,0.1-2.1
		c0-1.8-1-2.7-3.1-2.7h-1.1c-1,0-1.6,0.2-2.1,0.6c-0.4,0.4-0.7,1.1-0.7,2l-0.2,2.7V320c0,1.9,0.7,2.9,2,2.9c0.2,0,0.5,0,0.9-0.1
		c0.4-0.1,0.7-0.1,0.9-0.1c0.3,0,0.6,0.1,0.9,0.4c0.2,0.2,0.4,0.5,0.4,0.9c0,0.9-0.6,1.3-1.8,1.3c0,0-0.1,0-0.2,0
		c-0.1,0-0.2,0-0.3,0l-1.9-0.3c-0.7-0.1-1.5-0.2-2.5-0.2c-1,0-1.9,0.1-2.6,0.2l-1.9,0.3c-0.1,0-0.2,0-0.3,0c-0.1,0-0.2,0-0.3,0
		c-1.1,0-1.7-0.4-1.7-1.3c0-0.8,0.4-1.2,1.2-1.2c0.2,0,0.5,0,0.9,0.1c0.4,0,0.7,0.1,0.9,0.1c1.3,0,1.9-1,1.9-2.9v-2.7v-3.4v-3.3
		v-6.3c0-1.8-0.9-2.8-2.8-2.8h-1.2c-1.9,0-2.8,0.9-2.8,2.7c0,0.6,0,1.1,0,1.3l0.2,1.4c0,0.2,0,0.6,0,1c0,1.6-0.5,2.4-1.5,2.4
		c-1,0-1.4-0.6-1.4-1.8c0-0.3,0-0.9,0.1-1.8c0.1-1.2,0.1-2,0.1-2.4c0-0.6,0-1.3-0.1-2c-0.1-1.4-0.1-2-0.1-1.8c0-1.1,0.5-1.6,1.5-1.6
		c0.4,0,1.2,0,2.5,0.1c0.1,0,1.2,0,3.2,0.2h4.4c0.5,0,1.9,0,4.2-0.1c0.5,0,1.3,0,2.5-0.1c1.1-0.1,1.9-0.1,2.5-0.1
		C193.4,299,194.1,299.5,194.1,300.7L194.1,300.7z M232.3,301.6c-0.4,0-0.7,0-0.9-0.1c-0.4,0-0.7-0.1-0.9-0.1
		c-0.7,0-1.2,0.3-1.6,0.9l-0.6,0.9l-7.7,12v1.6c0,2.6,0.1,4.3,0.3,4.9c0.2,0.6,0.8,1,1.7,1c0.2,0,0.5,0,1-0.1c0.4-0.1,0.7-0.1,1-0.1
		c0.8,0,1.2,0.4,1.2,1.2c0,0.9-0.6,1.4-1.8,1.4c0,0-0.1,0-0.2,0c-0.1,0-0.2,0-0.3,0l-2.1-0.3c-0.8-0.1-1.6-0.2-2.4-0.2
		c-0.8,0-1.6,0.1-2.4,0.2l-2,0.3c-0.1,0-0.1,0-0.2,0c-0.1,0-0.2,0-0.3,0c-1.2,0-1.8-0.5-1.8-1.4c0-0.9,0.4-1.3,1.2-1.3
		c0.2,0,0.5,0,0.9,0.1c0.4,0.1,0.7,0.1,0.9,0.1c1.1,0,1.8-0.7,2-2.1c0-0.2,0-1.4,0-3.4c0-0.1,0-0.4,0-0.7c0-0.4,0-0.8,0-1.1l-7.6-12
		c-0.5-0.8-0.8-1.2-0.9-1.4c-0.4-0.4-0.9-0.6-1.4-0.6c-0.3,0-0.5,0.1-0.7,0.2c-0.1,0-0.2,0-0.3,0c-0.2,0-0.3,0-0.4,0
		c-1.2,0-1.8-0.4-1.8-1.4c0-0.9,0.5-1.4,1.6-1.4c0.4,0,0.9,0.1,1.6,0.2c1.2,0.2,2.4,0.3,3.5,0.3c0.8,0,2-0.1,3.6-0.3
		c0.5-0.1,1-0.1,1.4-0.1c1.1,0,1.6,0.4,1.6,1.3c0,0.8-0.6,1.3-1.9,1.3h-0.4h-1h-0.8c-0.3,0-0.5,0.1-0.5,0.3c0,0.1,0,0.2,0,0.2
		c0,0,0.1,0.1,0.2,0.3l6,10.2l6-10.1c0.1-0.2,0.2-0.4,0.2-0.6c0-0.2-0.2-0.3-0.5-0.3h-0.1l-0.7,0.1l-1,0.1c-0.4,0-0.8,0.1-1,0.1
		c-1.1,0-1.6-0.5-1.6-1.4c0-0.9,0.5-1.4,1.6-1.4c0.4,0,0.9,0,1.4,0.1c1.5,0.2,2.7,0.3,3.8,0.3c1.1,0,2.3-0.1,3.7-0.3
		c0.5-0.1,1-0.1,1.3-0.1c1,0,1.5,0.4,1.5,1.3C233.7,301.2,233.3,301.6,232.3,301.6z M253.3,322.1c-2,2.6-4.8,3.9-8.3,3.9
		c-3.5,0-6.2-1.2-8.2-3.7c-2-2.5-3-5.9-3-10.1c0-4.3,1-7.7,3-10.1c2-2.4,4.8-3.7,8.4-3.7c3.4,0,6.1,1.2,8.1,3.6c2,2.4,3,5.6,3,9.7
		C256.4,316,255.4,319.5,253.3,322.1z M283.7,301.6h-0.4c-0.1,0-0.2,0-0.4,0c-0.8,0-1.3,0.4-1.4,1.2c-0.2,0.8-0.3,2.8-0.3,6v6.8
		c0,1.7-0.1,2.9-0.2,3.6c-0.2,1.3-0.6,2.4-1.3,3.4c-1.6,2.3-4.2,3.4-7.9,3.4c-4.6,0-7.5-1.5-8.8-4.5c-0.4-0.9-0.6-2.3-0.6-4.2
		c0-0.9,0-2.3,0.1-4.1c0.1-1.8,0.1-3.2,0.1-4.1V307c0-1.9,0-2.9,0-3.2c-0.2-1.4-0.7-2.1-1.5-2.1c-0.1,0-0.1,0-0.3,0
		c-0.1,0-0.2,0-0.3,0c-0.1,0-0.3,0-0.5,0c-1.1,0-1.6-0.4-1.6-1.3s0.5-1.3,1.5-1.3c0.4,0,0.9,0,1.3,0.1c1.3,0.2,2.5,0.3,3.5,0.3
		c1.1,0,2.4-0.1,3.9-0.3c0.3,0,0.6-0.1,1-0.1c1.1,0,1.6,0.4,1.6,1.3s-0.5,1.3-1.4,1.3c-0.2,0-0.5,0-0.9-0.1
		c-0.4-0.1-0.7-0.1-0.9-0.1c-0.8,0-1.4,0.4-1.7,1.3c-0.1,0.4-0.2,1.2-0.2,2.4v2.5l-0.2,3.2v6c0,1.8,0.2,3.1,0.6,4
		c0.4,0.8,1.2,1.5,2.3,2c1,0.4,2.1,0.7,3.2,0.7c1.4,0,2.6-0.3,3.7-0.8c1-0.5,1.7-1.3,2-2.2c0.3-0.9,0.5-2.1,0.5-3.5v-10
		c0-2,0-3.1-0.1-3.4c-0.2-1.3-0.9-2-2-2c-0.2,0-0.4,0-0.8,0.1c-0.5,0.1-0.8,0.1-1,0.1c-0.3,0-0.6-0.1-0.9-0.4
		c-0.2-0.3-0.4-0.5-0.4-0.9c0-0.9,0.6-1.4,1.7-1.4c0.2,0,0.4,0,0.5,0l2.3,0.3c0.6,0.1,1.2,0.1,1.9,0.1c0.7,0,1.3,0,1.8-0.1l1.7-0.2
		c0.5-0.1,0.8-0.1,0.9-0.1c1.1,0,1.6,0.4,1.6,1.3S284.8,301.6,283.7,301.6z M313.9,317v0.8c0,0.5,0,0.9,0,1.1v1c0,0.2,0,0.4,0,0.7
		c0,1.5-0.4,2.7-1.3,3.5c-0.8,0.8-2,1.3-3.5,1.3c-3.1,0-4.6-1.5-4.6-4.6v-1.2v-1.3v-0.9c0-1.7-0.3-2.9-1-3.5c-0.7-0.6-2-0.8-4.1-0.8
		h-3.6c-0.8,0-1.2,0.5-1.2,1.5v3c0,1.9,0,3,0.1,3.3c0.2,1.3,0.9,2,1.9,2c0.4,0,0.6,0,0.8,0c0.4,0,0.8-0.1,1-0.1
		c0.8,0,1.2,0.4,1.2,1.3c0,0.9-0.6,1.4-1.7,1.4l-0.6-0.1l-2.1-0.3c-0.8-0.1-1.5-0.2-2.1-0.2c-0.8,0-1.7,0.1-2.7,0.2l-1.9,0.2
		c-0.4,0.1-0.6,0.1-0.6,0.1c-1.1,0-1.7-0.5-1.7-1.4c0-0.8,0.4-1.2,1.2-1.2c0.1,0,0.5,0,1.1,0.1c0.3,0.1,0.6,0.1,0.8,0.1
		c1.3,0,2-1,2-2.9v-15.6c0-2-0.7-2.9-2-2.9c-0.2,0-0.5,0-0.9,0.1c-0.4,0-0.7,0.1-0.9,0.1c-0.3,0-0.6-0.1-0.9-0.4
		c-0.2-0.2-0.3-0.5-0.3-0.9c0-0.9,0.6-1.3,1.7-1.3c0.1,0,0.3,0,0.5,0l2,0.2c0.5,0.1,1.2,0.1,1.9,0.1c0.8,0,1.7,0,2.7-0.1l3-0.2
		c1,0,1.9-0.1,2.7-0.1c5.7,0,8.6,2.2,8.6,6.5c0,2.6-1,4.3-3,5.2c-0.8,0.4-1.7,0.7-2.9,0.9c1.5,0.3,2.6,0.9,3.1,1.7
		c0.6,0.9,0.9,2.3,0.9,4.2v1.8c0,0.1,0,0.3,0,0.5c0,1.9,0.6,2.8,1.8,2.8c1.2,0,1.8-1.1,1.8-3.3v-1.2v-1v-0.5c0-0.7,0.1-1.3,0.2-1.5
		c0.2-0.4,0.6-0.7,1.2-0.7c0.9,0,1.4,0.5,1.4,1.6C313.9,316.1,313.9,316.4,313.9,317z"/>
	<path class="st0" d="M245.1,301.1c-2.5,0-4.4,1-5.8,2.9c-1.4,1.9-2.1,4.6-2.1,8.1c0,3.5,0.7,6.3,2.1,8.2c1.4,1.9,3.3,2.9,5.8,2.9
		c2.4,0,4.3-1,5.7-3c1.4-2,2.1-4.7,2.1-8.2c0-3.5-0.7-6.2-2-8C249.6,302,247.7,301.1,245.1,301.1z"/>
	<path class="st0" d="M306.2,305.7c0-3-2-4.4-6.1-4.4c-2.2,0-3.6,0.2-4.4,0.5c-0.8,0.3-1.2,1-1.2,1.9v1.2v4.5c0,0.4,0.1,0.7,0.2,0.8
		c0.2,0.1,0.5,0.2,0.9,0.2h3.7c2.2,0,3.8-0.3,4.9-0.9C305.5,308.7,306.2,307.5,306.2,305.7z"/>
</g>
<g>
	<path class="st0" d="M108.5,388c-1.2,0.9-2.4,1.5-3.9,1.8c-2.9,0.4-5.8,0.5-8.7,0.4H95c-1.2,0-3.8-0.2-3.8-0.8
		c0-0.2,0.2-0.4,0.3-0.5c0.6-0.4,0.9-0.6,1.4-1.2c0.2-0.2,0.5-0.7,0.6-1.2c0.2-4.4,0-16.3,0-21.6c0-0.6-0.4-1-0.6-1.4
		c-3.9-2.2-0.4-2.4,1.1-2.4l1.6-0.1c7.6,0,9.5,0.2,11.8,2.9c0.6,0.7,1,1.5,1.2,2.4c0.5,2.2,0.7,4.7-0.6,6.6c-0.8,1.3-1.5,2-3,2.5
		c0.7,0.1,1.3,0.4,1.9,0.6c1.7,0.8,3.2,3.3,3.5,5.2C110.9,384.1,110.1,386.9,108.5,388z M105,380.9c-0.1-1.8-1.6-4.6-4.6-4.4
		c-0.8,0-1.7,0-2.5,0.1l-0.4,12.1c1.2-0.1,2.5-0.2,3.1-0.3c1.3-0.2,2.5-0.9,3.3-1.9C105.2,384.9,105.1,383,105,380.9z M100.4,363.4
		c-0.2-0.1-1.1-0.1-2-0.2c-0.1,2.4-0.2,7.2-0.4,12c0.6,0,1.2-0.1,1.8-0.2c1.5-0.4,3.1-1.3,3.7-2.7c0.5-1,0.6-2.1,0.6-3.1
		c0.1-1.2,0-2.2-0.5-3.2C103.1,364.6,101.7,363.7,100.4,363.4z"/>
	<path class="st0" d="M123.9,389.8c-2.7,1.2-8.9,0.4-10.7-7.9c-0.9-3.9-0.9-8.5,0.1-12.4c1.9-7.2,6-9,9.8-9c4.3,0,7.9,4.7,8.4,11.7
		C131.7,377.6,129.8,387.3,123.9,389.8z M128.7,373.2c0-7.1-3.4-10.1-5.3-10.3c-2.5-0.2-4.3,1.9-4.9,3.9c-1.4,4.7-1.7,10.5-0.6,15.2
		c0.6,2.6,2.6,5.2,5,5C126,386.9,128.7,379.3,128.7,373.2z"/>
	<path class="st0" d="M144.1,389.8c-2.7,1.2-8.9,0.4-10.7-7.9c-0.9-3.9-0.9-8.5,0.1-12.4c1.9-7.2,6-9,9.8-9c4.3,0,7.9,4.7,8.4,11.7
		C152,377.6,150,387.3,144.1,389.8z M148.9,373.2c0-7.1-3.4-10.1-5.3-10.3c-2.5-0.2-4.3,1.9-4.9,3.9c-1.4,4.7-1.7,10.5-0.6,15.2
		c0.6,2.6,2.6,5.2,5,5C146.2,386.9,148.9,379.3,148.9,373.2z"/>
	<path class="st0" d="M171.4,368.5c-0.1,0.5-0.2,0.9-0.4,1.2c-0.1,0.2-0.4,0.2-0.7,0.2c-0.4,0-0.6-0.2-0.7-0.4
		c-0.3-1,0.1-3.5-1.1-4.9c-0.7-0.9-2.5-0.9-4.4-0.9l-0.3,24.1c0.4,0.6,1,0.7,1.5,1.1c0.1,0.1,0.3,0.2,0.3,0.5c0,0.6-2.6,0.8-3.8,0.8
		s-3.8-0.2-3.8-0.8c0-0.3,0.2-0.4,0.3-0.5c0.6-0.4,1-0.5,1.5-1.1v-24.1c-2,0-3.7,0.1-4.4,0.9c-1.2,1.4-0.8,3.9-1.1,4.9
		c-0.1,0.2-0.4,0.4-0.7,0.4c-0.2,0-0.6-0.1-0.7-0.2c-0.2-0.3-0.4-0.7-0.4-1.2c-0.1-1.4-0.1-3.9,0-4.8c0.1-1.4,0.8-2.5,2.7-2.5
		c2.4,0,4.4,0.1,6.6-0.1c2.5,0.1,4.6,0.1,7,0.1c1.9,0,2.6,1.1,2.7,2.5C171.5,364.5,171.5,367.1,171.4,368.5z"/>
	<path class="st0" d="M187.4,382.8c0.5,3.9-1.9,6-3.6,7.1c-1.4,0.9-3.9,1-5.6,1c-3.8-0.2-5.6-3.4-5.7-5.8c-0.1-1.3,0.1-3,0.9-3.7
		c0.9-0.9,2.1-1,2.6-1c0.4,0,0.9,0.2,0.9,0.7c0,0.9-1.7,1-2,1.9c-0.2,0.5-0.4,1.2-0.3,2.3c0.1,2.2,2.2,3.7,3.6,3.6
		c2.1-0.1,4.4-2,4.2-5.3c-0.2-4-8.9-8.9-9.7-15.2c-0.6-5,3.9-7.1,6.3-7.6c1.6-0.3,3.7-0.2,5.1,0.8c3.3,2.3,3.3,7.2,1.7,8.4
		c-0.4,0.2-0.8,0.4-1.2,0.4c-1.1,0.1-2.2-0.6-2.2-1c0.1-0.7,1.4-0.6,2.1-1.4c0.7-3-1.1-5.6-4.4-4.7c-1.4,0.4-2.5,1.5-2.6,2.9
		c-0.3,2.8,1.2,4.5,2.9,6.5C181.7,374.3,187,379.1,187.4,382.8z"/>
	<path class="st0" d="M219,389.5c0,0.6-2.8,0.8-4,0.8c-1.3,0-4.3,0.1-4.3-0.5c0-0.3,0.1-0.6,0.4-0.6c0.7-0.2,0.9-0.4,1.5-1
		c-0.6-1.7-1-4.1-1.7-6.8c-0.1,0-0.1-0.1-0.1-0.1c-0.8-1-4.5-1-5.3-0.2l-0.2,0.3c-0.7,3.4-1.1,6.1-1.3,6.6c0.5,0.7,1.4,1.2,2.1,1.4
		c0.1,0.1,0.3,0.2,0.3,0.5c0,0.7-3.2,0.6-4.4,0.6c-1.2,0-2.6-0.1-2.6-0.7c0-0.3,0.1-0.6,0.3-0.6c0.6-0.2,1.1-0.4,2-1.2
		c0-0.1,0-0.1,0.1-0.2c1.3-5.5,3.7-19.5,4.7-23.9v-0.1c-0.5-0.6-0.7-0.8-1.3-1.2c-0.1-0.1-0.4-0.2-0.3-0.4c0.1-0.6,2.6-0.9,3.8-0.9
		s3.7,0.2,3.8,0.9c0,0.2-0.2,0.3-0.3,0.4c-0.4,0.4-0.6,0.5-0.9,0.9c0.9,5,6,24.5,6,24.5c0.6,0.7,0.9,0.9,1.7,1.1
		C218.8,389,219,389.2,219,389.5z M210.2,378.5c-0.7-3.4-1.8-7.1-2.5-10.4c-0.6,2.8-1.2,6.8-2,10.3C206.7,379,208.9,379,210.2,378.5
		z"/>
	<path class="st0" d="M244,360.9c4.4,0,8.5,0.4,11.4,2c1.8,1,3.1,2.6,3.7,4.7c1.8,6.4,1.3,17.2-2.9,20.6c-2.9,2.3-7.9,2-10.9,1.8
		c-0.3,0-0.6,0.1-0.7,0.1c-1.2,0-3.8-0.2-3.8-0.9c0-0.2,0.2-0.4,0.3-0.4c0.6-0.4,0.9-0.6,1.4-1.2c0.2-0.3,0.4-0.7,0.6-1.3v-19
		c-0.1-0.8-0.5-0.8-1.1-1.2c-0.1-0.1-0.4-0.2-0.3-0.4c0.4-0.9,2.6-0.9,3.8-0.9c1.1,0,3.1,0.2,3.3,0.9c0.1,0.2-0.1,0.4-0.2,0.4
		c-0.6,0.4-0.9,0.4-1.1,1.2c0,6.6,0,13.3-0.2,20.6c1.2-0.1,2.5-0.2,3.1-0.2c1.5-0.2,2.5-0.9,3.6-2.3c1.7-2.2,2-11.6,0.8-16.9
		c-0.4-1.5-1.2-2.7-2.2-3.5c-2.1-1.7-5.2-2.1-8.3-2.1c-1.6,0-4.8,0.1-5.4,1.2c-0.1,4.7-0.4,19.5-0.1,24.2c0.3,0.6,0.4,0.7,1,0.9
		c0.2,0.1,0.3,0.2,0.3,0.5c0,0.7-2.1,0.6-3.3,0.6c-1,0-1.5-0.1-1.8-0.2c-0.1-0.1-0.2-0.1-0.2-0.2c-2.6-3.1-7.1-11.7-10.5-17.9
		c-0.1,5.8-0.1,12.5-0.1,15.8v0.1c0.6,0.7,1,1.2,1.7,1.5c0.1,0.1,0.3,0.2,0.3,0.5c0,0.7-2.7,0.6-3.9,0.6c-1.2,0-2-0.1-2-0.7
		c0-0.3,0.1-0.6,0.3-0.6c0.5-0.1,0.7-0.4,1.3-1.1v-24.8c-0.3-0.6-0.6-0.7-1.3-0.9c-0.1-0.1-0.3-0.2-0.3-0.5c0-0.6,2.5-0.6,3.7-0.6
		c1.2,0,1.7,0.1,1.6,0.7c-0.1,0.4-0.6,0.6-1,1c2.4,3.7,7.3,14,11.7,21.2l0.1-20.5c-0.3-0.6-0.6-0.9-1.3-1.1
		c-0.1-0.1-0.3-0.2-0.3-0.5C234.6,360.8,243,360.9,244,360.9z"/>
	<path class="st0" d="M291.8,389.5c0,0.6-2.6,0.8-3.8,0.8s-3.6-0.1-3.8-0.8c-0.1-0.3,0.2-0.4,0.3-0.5c0.6-0.4,0.9-0.5,1.4-1.1v-9.6
		c-1-1.3-6.3-1.2-7.3-0.2c0.1,3.9-0.2,7.6-0.1,9.8c0.4,0.6,1,0.7,1.6,1.1c0.1,0.1,0.3,0.2,0.2,0.5c-0.1,0.5-2.6,0.8-3.7,0.8
		c-1.2,0-3.8-0.2-3.8-0.8c0-0.3,0.2-0.4,0.3-0.5c0.6-0.4,1.1-0.4,1.4-1.1c0.2-3.4-0.2-18.2,0-24.3c0-0.8-0.7-0.8-1.4-1.2
		c-0.1-0.1-0.3-0.2-0.3-0.4c0-0.6,2.6-0.9,3.8-0.9c1.1,0,3.5,0.2,3.7,0.9c0.1,0.2-0.1,0.4-0.2,0.4c-0.6,0.4-0.9,0.6-1.4,1.2
		c-0.2,2.2-0.1,6.5-0.1,10.8c0.9,1.4,5.4,1.5,7.2,0h0.1v-10.8c-0.5-0.6-0.8-0.8-1.4-1.2c-0.1-0.1-0.4-0.2-0.3-0.4
		c0.2-0.6,2.6-0.9,3.8-0.9s3.8,0.2,3.8,0.9c0,0.2-0.2,0.4-0.3,0.4c-0.6,0.4-0.9,0.6-1.4,1.2c0.1,5.2-0.3,19.1-0.2,24.3
		c0.4,0.6,1,0.7,1.6,1.1C291.6,389.1,291.8,389.2,291.8,389.5z"/>
	<path class="st0" d="M299,363.6c0.1,4.5-0.6,22.2-0.2,24.3c0.1,0.7,1,0.7,1.6,1.1c0.1,0.1,0.2,0.2,0.2,0.5c0,0.6-2.6,0.8-3.7,0.8
		c-1.2,0-3.8-0.2-3.8-0.8c0-0.3,0.2-0.4,0.3-0.5c0.6-0.4,1.2-0.4,1.4-1.1c-0.1-4.4,0.1-22.9,0-24.3c-0.1-0.8-0.7-0.8-1.4-1.2
		c-0.1-0.1-0.4-0.2-0.3-0.4c0.4-0.9,2.6-0.9,3.8-0.9c1.1,0,3.6,0.2,3.7,0.9c0.1,0.2-0.1,0.4-0.2,0.4
		C299.8,362.9,299.2,362.9,299,363.6z"/>
	<path class="st0" d="M322.3,389.4c0,1.3-4.8,2.5-7.4,0.3c-3.1-2.6-2.4-12-6-13.2c-0.8,1.6-1.3,2.8-1.4,3.3c0,3.3-0.1,6.3-0.1,8.1
		c0.4,0.6,1,0.7,1.6,1.1c0.1,0.1,0.2,0.2,0.2,0.5c0,0.6-2.6,0.8-3.7,0.8c-1.2,0-3.8-0.2-3.8-0.8c0-0.3,0.2-0.4,0.3-0.5
		c0.6-0.4,0.9-0.5,1.4-1.1v-24.3c-0.5-0.6-0.7-0.8-1.4-1.2c-0.1-0.1-0.3-0.2-0.3-0.4c0-0.6,2.6-0.9,3.8-0.9c1.1,0,3.7,0.2,3.7,0.9
		c0,0.2-0.1,0.4-0.2,0.4c-0.6,0.4-0.9,0.6-1.4,1.2c0,2.4-0.1,6.6-0.1,10.9h0.1c3.2-5.7,8.3-13.5,11.6-12.9c1.9,0,2.5,3.1,1.2,2.2
		c-3.3-1.2-7.7,5.5-10.4,10.6c1.9,0.2,4.3,0.9,5.6,3.5c1.3,2.7,1.2,12.7,6.3,10.9C322.1,388.8,322.3,389.1,322.3,389.4z"/>
	<path class="st0" d="M340.6,383.5c0.1,1.4,0.1,3.3,0,4.2c-0.1,1.4-0.8,2.5-2.7,2.5c-2.2,0-4.3-0.1-6.3,0.1h-4.2
		c-1.2,0-3.8-0.2-3.8-0.8c0-0.3,0.2-0.4,0.3-0.5c0.6-0.4,0.9-0.5,1.4-1.2c0.2-0.3,0.4-0.8,0.6-1.5v-21.2c-0.1-0.7-0.4-1.2-0.6-1.5
		c-0.6-0.6-0.8-0.8-1.4-1.2c-0.1-0.1-0.3-0.2-0.3-0.4c-0.1-0.7,2.6-0.9,3.8-0.9c3.4,0,6.8,0.2,10.5,0.1c1.9,0,2.6,1.1,2.7,2.5
		c0.1,0.9,0.2,2.9,0,4.2c-0.1,0.5-0.2,0.9-0.4,1.2c-0.1,0.2-0.4,0.2-0.7,0.2c-0.4,0-0.6-0.2-0.7-0.4c-0.3-1,0.1-3.1-1.1-4.5
		c-0.9-1-3.7-0.9-6-0.9h-0.9l-0.3,11.1c1,0,1.8-0.1,2.5-0.6c0.7-0.5,0.9-1.2,1.1-1.9c0.1-0.2,0.2-0.4,0.4-0.3
		c0.6,0.1,0.9,2.6,0.9,3.7c0,1.2-0.2,4.1-0.7,4.1c-0.3,0-0.5-0.2-0.6-0.3c-0.3-0.6-0.2-1.2-1.1-2c-0.6-0.5-1.5-0.7-2.5-0.8
		l-0.3,11.3h1.6c2.3,0,5.1,0.1,6-0.9c1.2-1.4,0.8-3.6,1.1-4.5c0.1-0.2,0.4-0.4,0.7-0.4c0.2,0,0.6,0.1,0.7,0.2
		C340.3,382.6,340.5,383,340.6,383.5z"/>
</g>
</svg>
